<svg id="eoZj5reHN1B1" xmlns="http://www.w3.org/2000/svg" xmlns:xlink="http://www.w3.org/1999/xlink" viewBox="0 0 300 300" shape-rendering="geometricPrecision" text-rendering="geometricPrecision"><path d="M106.58824,61.41177c1.82059-10.92352,5.04941-23.45882,2.82353-34.58824-.69384-3.46918-4.34695-7.48556-2.82353-11.29412c2.08858-5.22144,43.63386-12.9115,48.70588-4.94118c11.90901,18.71415-4.33986,48.1133,11.29412,66.35294c6.51779,7.60408,24.13852,11.41936,26.11765,23.29412C196.49548,122.97283,170.00344,120.1348,177.17648,156c6.69295,33.46473,41.25749,95.65927-8.47059,112.23529-7.2134,2.40447-23.99662,3.42108-31.76471,2.82353-12.51005-.96231-29.43296-2.96962-40.94118-7.76471-21.97196-9.15498-12.48423-87.68968-9.17647-105.88235c1.11571-6.13638,6.29869-11.13071,5.64706-17.64706-1.43947-14.39467-26.70186-45.33458-21.88235-58.58823c4.17723-11.48739,25.35178-6.45443,36-19.7647" fill="none" stroke="#3f5787" stroke-width="0.6"/></svg>
