<svg id="epamDjkbuwl1" xmlns="http://www.w3.org/2000/svg" xmlns:xlink="http://www.w3.org/1999/xlink" viewBox="0 0 300 300" shape-rendering="geometricPrecision" text-rendering="geometricPrecision"><path d="M237.26813,182.63069c39.3972-39.39718-9.1454-44.01673-12.14165-82.96796-1.45297-18.88857,5.12798-27.23815,11.63575-43.50759.15728-.39319,1.94521-4.41777,1.51771-5.05902-.75407-1.1311-4.99922-.14143-5.56492,0-14.0258,3.50645-24.75682,53.33526-20.23609,65.76729c3.24184,8.91506,11.75566,15.88625,15.17707,25.29511c2.19061,6.02418-4.32635,25.49476-11.63575,26.30691-3.26703.363-19.77152-15.17707-31.36594-15.17707-22.32983,0-56.80026,18.27915-68.2968,16.18887-17.56035-3.19279-2.72833-25.27105-14.16526-30.35413-8.82553-3.92246-7.53826,15.66621-13.65936,17.70658-5.40195,1.80065-14.1663-19.79278-20.74199-15.68297-6.38175,3.98859,4.12674,21.97032,3.54132,27.82462-.84742,8.47424-20.6119,16.10214-26.81282,20.23609-.84728.56485-3.44492,2.95116-2.52951,4.55312c2.49956,4.37424,15.02919-2.39875,18.21248-3.03541c8.2076-1.64152,49.3415,1.03319,53.11973,6.07083c6.65721,8.87628,9.28601,33.96227,11.12985,45.0253.06783.40697.97994,4.85387.5059,5.56492-2.00772,3.01159-30.06215,5.45016-16.18887,9.61214c35.47763,10.64329,13.25785-58.6445,23.7774-59.69646c14.98187-1.49819,20.50582,33.56977,18.21248,43.50759-.56878,2.46471-2.95789,12.34615-5.05902,13.65936-.48014.30009-18.15739,2.95627-6.57673,7.58853c3.38476,1.3539,8.16616-1.95771,11.12985-3.03541c20.7611-7.54949,14.02549-34.6809,6.07083-50.59022-.48051-.96103-1.79584-3.80456-1.0118-5.05902.99432-1.59092,5.87609-3.02758,7.58853-3.54131c29.5808-8.87424,15.25181,17.89345,19.22428,27.82462c3.16029,7.90071,14.54663,8.67424,16.18887,17.70658.79132,4.35227-20.60092,11.77682-17.70658,14.67116c3.65277,3.65277,28.16415-9.84527,29.34233-14.16526c3.21242-11.77887-26.6073-23.07124-3.54132-38.44857c3.41048-2.27366,10.97098,1.55296,13.15346,4.04722c4.66555,5.33206-.1986,16.01234,4.55312,20.23609c9.8091,8.7192,29.34233,2.61722,29.34233,19.73019c0,1.97679-.78286,4.41603,2.52951,1.51771c3.83394-3.35469,10.42936-14.9825,8.09443-20.23609-1.74971-3.93685-20.21803-1.72851-25.80101-6.07083-9.48334-7.37593-2.92656-34.43971-1.01181-44.01349" transform="translate(0 0.000001)" fill="none" stroke="#3f5787" stroke-width="0.6"/></svg>
