<svg id="euvDAbdfWxg1" xmlns="http://www.w3.org/2000/svg" xmlns:xlink="http://www.w3.org/1999/xlink" viewBox="0 0 300 300" shape-rendering="geometricPrecision" text-rendering="geometricPrecision"><path d="M104.86406,165.67976c-48.81497-9.763-48.15566,54.19238-1.8127,56.91843c23.9695,1.40997,33.11035-14.51644,35.89124-14.86405c3.10793-.38849,6.71424,7.79671,9.78852,8.70091c10.29802,3.02883,29.55588,3.10598,39.51662-.72508c25.21977-9.69991,32.18647-51.37275,1.08761-56.55589-16.41135-2.73522-29.80164,9.78852-30.81571,9.78852-1.37786,0-.81739-2.63682-1.08761-3.98792-1.5215-7.60751-.14403-15.58545-2.17523-23.20242-4.83405-18.12768-.8722-85.67556-21.02719-91.72205-43.85652-13.15695-40.30813,58.25088-34.80362,83.02115c2.04579,9.20605,4.24449,18.4281,6.52568,27.55287c1.89493,7.57972-2.99169,10.78775-1.08761,5.07553" fill="none" stroke="#3f5787" stroke-width="0.6"/></svg>
