<svg id="eJlQTcuspIg1" xmlns="http://www.w3.org/2000/svg" xmlns:xlink="http://www.w3.org/1999/xlink" viewBox="0 0 300 300" shape-rendering="geometricPrecision" text-rendering="geometricPrecision"><path d="M63.06856,242.94622c-11.4278-7.61854-18.09625-19.8264-26.9335-29.92611-27.93374-31.92426-37.66229-60.79778,10.47414-80.05235c3.93843-1.57537,4.45053-1.33333,5.23707,2.99261c1.99928,10.99605-8.16594,17.48598-13.46675,25.4372-.74495,1.11742-1.36267,2.40445-1.49631,3.74076-.12653,1.2653.0742,2.66244.74815,3.74076c10.5404,16.86463,20.37151-17.5661,29.17796-5.23707c9.48696,13.28174-37.39067,23.45343-2.99261,46.38548c3.0866,2.05774,6.55166,5.23707,10.47414,5.23707c43.50524,0-12.99131-71.61995-19.45197-84.54127-1.50679-3.01358-4.10392-4.12576-.74815-7.48153c24.3214-24.32141,33.98812,73.27586,72.57083,50.12624c12.37245-7.42347-3.64704-27.3073-6.73338-31.42242-17.70652-23.60869-30.90293-40.91974-7.48153-64.34114c4.6489-4.6489,10.05559-12.00341,17.20751-12.7186c5.05114-.50511,5.63603,4.38854,5.98522,8.22968c2.17286,23.90148-32.16324,52.37437,2.24446,69.57821c6.32346,3.16173,14.37161,6.32012,21.69643,4.48892c49.43636-12.35909-28.49697-83.93056-23.19274-92.77095c15.94253-26.57089,26.59315,21.60581,39.6521,18.70382c1.21723-.2705,2.30094-1.20696,2.99261-2.24446.8749-1.31235,1.21416-2.93711,1.4963-4.48892c2.78497-15.31735-5.22789-27.13921,14.2149-30.67427c2.50221-.45495,5.52776-3.12444,7.48153-1.49631c14.45038,12.04198-12.62903,39.89094-8.22968,51.62255c2.74832,7.32885,28.72376.82843,34.41503,21.69643c5.91224,21.67821-36.52172.81224-41.1484,11.22229-1.88676,4.24521,9.44376,11.43106,0,28.42982-7.82888,14.09198-32.182318-.507462-37.26192,14.21491-6.86717,19.903337-16.986797,22.487122-46.531188,32.170562-3.692634,1.210294-11.513599,25.491173-21.696432,37.407641-11.84543,13.862124-17.074894,16.042757-18.70382,11.970447Z" fill="none" stroke="#3f5787" stroke-width="0.6"/></svg>
