<svg id="exLnVi6wREH1" xmlns="http://www.w3.org/2000/svg" xmlns:xlink="http://www.w3.org/1999/xlink" viewBox="0 0 300 300" shape-rendering="geometricPrecision" text-rendering="geometricPrecision"><path d="M92.9003,149.7281c-3.21494,16.07468-7.13494,34.93453-14.50151,49.66767-1.3121,2.62419-25.5184,6.84812-15.95166,14.50151c3.12839,2.50272,8.58101,1.27765,12.32628,1.81269c22.41981,3.20283,30.72361-9.37113,34.07855-31.17825.94735-6.1578,5.26764-26.46526,12.32628-26.46526c4.55621,0,8.08996,15.91136,8.70091,19.57704c1.10718,6.64309,6.3797,33.57003,10.87613,38.06646c4.03287,4.03287,14.25961,2.2256,19.2145,1.81269c4.83847-.40321,14.57657.88598,18.48943-2.53777c8.32141-7.28124-13.52174-15.95166-17.76435-15.95166-1.32931,0-3.04795.93996-3.98791,0-.70465-.70465-.43201-1.94785-.72508-2.9003-.19138-.622-.59745-1.17455-.72508-1.81269-5.25762-26.28811-15.49025-67.35669-2.17523-92.08459c2.12331-3.9433,8.31371-20.89813,11.96375-22.1148c2.90423-.96808,6.34834,11.7519,6.88822,13.77644c1.98968,7.46128.71743,48.10178,14.13897,39.15408c6.76176-4.50784.48375-21.50875-.72508-27.55287-3.74828-18.74138-3.09226-30.54323-18.48943-44.22961-7.227-6.424-21.19968-3.07279-27.55287-9.42598-5.04227-5.04227,24.78486-32.58871-7.97583-42.41692-8.02766-2.4083-23.20819-5.064-27.91541,4.35045-3.13023,6.26046-4.50626,20.88836-.72508,27.19033c1.96021,3.26702,14.16573,8.30015,11.60121,11.96375-4.32071,6.17245-21.01399,3.87128-27.91541,6.52568-13.56768,5.21834-34.32794,49.96171-30.45317,64.16919c1.44272,5.28996,9.43095,3.25191,11.23867-.72508c3.50533-7.71174,14.30616-45.67976,21.75227-45.67976c7.5809,0,7.590094,41.54092,8.338384,46.40484c1.27158,8.26527,0,9.42598-4.350454,26.10272" transform="translate(.000001 0)" fill="none" stroke="#3f5787" stroke-width="0.6"/></svg>
