<svg id="eKB7myvzjuO1" xmlns="http://www.w3.org/2000/svg" xmlns:xlink="http://www.w3.org/1999/xlink" viewBox="0 0 300 300" shape-rendering="geometricPrecision" text-rendering="geometricPrecision"><path d="M154.3432,227.98316c-12.72483,0-86.36659-8.79813-94.26726-15.71121-9.56216-8.36689-10.35798-26.17152-11.22229-37.40764-.72762-9.45905-7.66943-24.29351,1.49631-31.42242c0,0,7.48152-4.48891,7.48153-4.48892c19.54649-9.77324,10.0868,21.90573,25.4372,20.20013c4.73213-.52579,2.57637-6.23823,2.24446-8.22968-1.77995-10.67972-19.06222-31.19394-10.47414-42.64471c3.03565-4.04754,26.31933-5.24685,29.92611-2.99261c2.74028,1.71267.51699,21.69643,2.99261,21.69643c1.27162,0,.63303-2.47437.74815-3.74076c1.06439-11.70827-5.23707-23.79701-5.23707-35.91134c0-32.81545-15.03913-69.43527,27.68165-73.31898c25.86741-2.35158,22.46368,57.08877,23.94089,74.81528.73627,8.83519,0,18.06696,0,26.9335c0,2.75454.12291,10.84287-.74815,8.22968-.8524-2.5572-3.93126-22.72111-2.24446-24.68904c3.98208-4.64576,25.7945.72579,29.17796,5.23707c3.49338,4.65784,2.26995,19.66035,1.49631,24.68904-.38672,2.51366-1.49631,4.9383-1.49631,7.48153c0,1.49631,0,5.98522,0,4.48892c0-21.09381-12.7223-49.96671,17.95567-43.39286c2.96385.63511,15.93552,1.603,17.95567,4.48892c8.11743,11.59633,3.77735,117.64741-8.97783,123.44522-14.13519,6.42508-48.99018-4.257988-53.86701,2.244452" fill="none" stroke="#3f5787" stroke-width="0.6"/></svg>
